# xmcd CD database file
#
# Track frame offsets:
#	150
#	11600
#	23995
#	55536
#	65359
#	76828
#	88644
#	99077
#	118590
#	126944
#	134954
#	147555
#	156232
#	169934
#	181832
#	203152
#	220069
#	254220
#
# Disc length: 3395 seconds
#
# Revision: 0
# Processed by: cddbd v1.5.1PL0 Copyright (c) Steve Scherf et al.
# Submitted via: CDex 1.51
#
DISCID=020d4112
DTITLE=Wabi Ryvola - Posledni defile
DYEAR=1900
DGENRE=Country
TTITLE0=Posledni defile
TTITLE1=Na to zapomen
TTITLE2=Zeme tahnoucich oblak
TTITLE3=Nechte me zit
TTITLE4=Strasna Barbora
TTITLE5=Ja bych chtel bejt bohatej
TTITLE6=To mi povidej
TTITLE7=Prazdnej stul
TTITLE8=Bila, bila
TTITLE9=Kamarad les
TTITLE10=Smutna nedele
TTITLE11=Uz tahnou stada snobu
TTITLE12=Hubenej Claim (Digger)
TTITLE13=Noci
TTITLE14=Velikonoce lampare Tonyho
TTITLE15=Vsim cim jsem byl
TTITLE16=Verim
TTITLE17=Noty, akordy a texty - data
EXTD=
EXTT0=
EXTT1=
EXTT2=
EXTT3=
EXTT4=
EXTT5=
EXTT6=
EXTT7=
EXTT8=
EXTT9=
EXTT10=
EXTT11=
EXTT12=
EXTT13=
EXTT14=
EXTT15=
EXTT16=
EXTT17=
PLAYORDER=
